<?xml version="1.0" standalone="no"?>
<!DOCTYPE svg PUBLIC "-//W3C//DTD SVG 20010904//EN"
 "http://www.w3.org/TR/2001/REC-SVG-20010904/DTD/svg10.dtd">
<svg version="1.0" xmlns="http://www.w3.org/2000/svg"
 width="2628.000000pt" height="844.000000pt" viewBox="0 0 2628.000000 844.000000"
 preserveAspectRatio="xMidYMid meet">

<g transform="translate(0.000000,844.000000) scale(0.100000,-0.100000)"
fill="#000000" stroke="none">
<path d="M8030 7881 c0 -6 11 -13 25 -17 14 -3 36 -20 50 -36 l25 -30 0 -1319
c0 -1462 5 -1365 -65 -1390 -19 -7 -35 -17 -35 -21 0 -4 189 -8 420 -8 231 0
420 4 420 8 0 4 -15 14 -34 20 -68 25 -66 3 -66 749 0 641 1 670 20 711 57
125 212 297 321 356 99 54 178 35 215 -51 20 -47 17 -160 -6 -235 -39 -128
-180 -371 -362 -624 -48 -68 -88 -133 -88 -144 0 -25 354 -715 383 -748 11
-12 37 -26 56 -32 49 -13 741 -13 741 0 0 6 -8 10 -18 10 -44 0 -52 13 -424
614 -54 88 -98 170 -98 183 0 15 23 53 59 96 123 152 236 341 282 476 28 81
41 209 30 283 -51 314 -419 421 -751 216 -107 -66 -240 -193 -305 -293 l-50
-76 -5 558 c-5 504 -7 562 -23 603 -21 54 -58 94 -112 123 -38 21 -55 22 -322
25 -193 2 -283 0 -283 -7z"/>
<path d="M12364 7870 c-68 -27 -132 -85 -169 -151 -27 -49 -30 -62 -30 -149 0
-87 3 -100 30 -149 33 -60 87 -111 154 -143 69 -34 186 -32 263 4 66 31 128
91 160 156 33 68 33 197 0 265 -31 61 -99 129 -159 158 -67 32 -180 36 -249 9z"/>
<path d="M16344 7870 c-72 -29 -137 -89 -173 -162 -27 -52 -31 -72 -31 -138 0
-66 4 -86 30 -138 35 -69 92 -125 159 -155 67 -31 188 -30 256 1 63 29 129 92
163 157 22 43 26 63 26 135 0 72 -4 93 -26 135 -33 63 -98 128 -157 156 -67
32 -179 36 -247 9z"/>
<path d="M15456 7488 c-25 -88 -44 -118 -120 -194 -130 -130 -303 -210 -511
-236 -97 -11 -117 -22 -66 -33 16 -3 37 -15 47 -27 18 -19 19 -58 24 -772 5
-567 9 -764 19 -806 42 -179 164 -305 332 -345 83 -19 248 -19 324 0 108 28
325 141 325 170 0 11 -18 5 -72 -20 -52 -25 -86 -35 -121 -35 -44 0 -54 4 -87
38 -21 20 -44 55 -51 77 -11 32 -14 213 -17 883 l-3 842 131 0 c80 0 130 4
130 10 0 6 -50 10 -130 10 l-130 0 0 225 c0 148 -4 225 -10 225 -6 0 -12 -6
-14 -12z"/>
<path d="M11310 7040 c-85 -23 -191 -71 -275 -125 -31 -20 -58 -35 -60 -33 -1
2 -12 22 -23 44 -12 23 -35 53 -52 67 -58 50 -109 57 -392 57 -142 0 -258 -4
-258 -8 0 -4 16 -14 35 -21 68 -24 65 27 65 -968 0 -868 -1 -899 -19 -930 -12
-19 -31 -34 -50 -38 -89 -19 0 -25 394 -25 234 0 425 2 425 5 0 3 -15 11 -32
18 -18 8 -42 24 -53 37 -20 22 -20 40 -25 879 -4 753 -3 857 10 868 35 29 101
63 144 75 43 11 48 11 68 -9 21 -21 21 -24 8 -106 -17 -110 -10 -165 31 -245
75 -146 240 -209 396 -151 68 26 138 92 173 164 21 42 25 65 25 140 0 81 -3
95 -29 143 -36 64 -87 112 -158 149 -47 24 -66 27 -163 30 -86 2 -127 -2 -185
-17z"/>
<path d="M1180 7039 c-387 -50 -674 -321 -630 -593 27 -165 161 -272 330 -264
90 4 150 30 210 91 64 63 83 108 88 209 4 76 2 92 -21 142 -14 31 -54 86 -91
125 -59 63 -66 74 -66 112 0 59 26 96 90 127 48 23 67 27 147 27 77 0 96 -3
120 -21 75 -56 103 -175 103 -441 l0 -187 -56 -53 c-71 -67 -171 -116 -374
-183 -85 -28 -202 -74 -260 -103 -88 -43 -118 -64 -186 -132 -122 -121 -160
-220 -152 -397 3 -86 8 -104 41 -170 68 -138 191 -229 357 -264 190 -40 435
22 592 150 l56 45 12 -44 c17 -62 70 -120 127 -139 38 -13 96 -16 320 -16 175
0 273 4 273 10 0 6 -9 10 -21 10 -11 0 -34 13 -50 29 l-29 29 0 699 c0 771 0
766 -63 871 -18 30 -63 84 -102 120 -176 168 -471 249 -765 211z m255 -1781
c-90 -81 -228 -73 -303 18 -58 70 -74 131 -80 294 -6 183 11 282 67 396 49 99
97 154 217 250 51 40 99 84 106 96 11 19 14 -66 18 -502 l5 -525 -30 -27z"/>
<path d="M2410 7041 c0 -5 13 -12 30 -16 16 -4 39 -18 50 -32 20 -25 20 -39
20 -940 l0 -915 -29 -29 c-16 -16 -39 -29 -50 -29 -12 0 -21 -4 -21 -10 0 -7
148 -10 425 -10 234 0 425 4 425 8 0 4 -14 12 -32 17 -17 6 -40 21 -49 35 -17
24 -19 72 -20 879 l-1 854 27 15 c191 100 340 51 381 -125 21 -88 20 -1572 0
-1612 -14 -27 -53 -51 -81 -51 -8 0 -15 -4 -15 -10 0 -7 148 -10 425 -10 277
0 425 3 425 10 0 6 -9 10 -21 10 -11 0 -34 13 -50 29 l-29 29 0 734 c0 801 -1
811 -58 932 -77 162 -227 245 -443 246 -160 0 -321 -43 -493 -133 l-87 -44
-21 49 c-11 26 -34 59 -50 73 -57 48 -109 55 -395 55 -153 0 -263 -4 -263 -9z"/>
<path d="M4520 7041 c0 -5 13 -12 30 -16 16 -4 39 -18 50 -32 20 -25 20 -39
20 -943 l0 -918 -31 -26 c-17 -14 -39 -26 -50 -26 -10 0 -19 -4 -19 -10 0 -7
148 -10 425 -10 234 0 425 4 425 8 0 4 -14 12 -32 17 -17 6 -40 21 -49 35 -18
24 -19 72 -20 879 l-1 855 27 14 c195 101 350 46 385 -137 6 -33 10 -340 10
-813 0 -847 4 -802 -70 -832 -22 -9 -40 -18 -40 -21 0 -3 191 -5 425 -5 394 0
483 6 394 25 -19 4 -38 19 -50 38 -18 31 -19 59 -19 762 0 801 -1 808 -60 925
-81 160 -227 239 -441 240 -160 0 -321 -43 -493 -132 l-85 -45 -28 56 c-30 60
-71 94 -132 111 -46 13 -571 13 -571 1z"/>
<path d="M12060 7040 c0 -5 11 -12 24 -16 13 -3 35 -17 48 -31 l23 -25 3 -899
c3 -1004 6 -955 -64 -981 -19 -6 -34 -16 -34 -20 0 -4 189 -8 420 -8 231 0
420 4 420 8 0 4 -16 14 -35 21 -68 24 -65 -27 -65 965 0 656 3 902 12 920 6
14 28 34 49 43 21 10 39 21 39 26 0 4 -189 7 -420 7 -268 0 -420 -4 -420 -10z"/>
<path d="M13667 7040 c-227 -39 -423 -163 -475 -303 -28 -75 -30 -186 -3 -261
44 -127 176 -274 440 -494 277 -231 395 -364 452 -509 32 -83 33 -221 2 -280
-43 -79 -122 -113 -263 -113 -110 0 -168 19 -214 71 -65 71 -58 119 30 213 86
92 99 123 99 241 0 87 -3 106 -25 148 -30 59 -96 122 -158 150 -73 34 -189 31
-264 -6 -72 -35 -141 -111 -163 -178 -20 -59 -22 -167 -5 -231 52 -195 254
-361 502 -413 92 -20 294 -19 399 1 338 63 525 278 506 578 -15 240 -138 419
-504 733 -295 253 -373 351 -381 481 -4 61 -4 63 35 101 44 45 92 61 180 61
153 0 278 -55 399 -175 62 -61 90 -99 122 -163 23 -46 44 -98 48 -118 17 -89
24 -28 24 199 l0 244 -52 -14 c-69 -19 -188 -11 -341 22 -122 26 -284 32 -390
15z"/>
<path d="M16030 7041 c0 -4 14 -12 31 -17 18 -5 41 -22 53 -37 21 -28 21 -29
21 -939 l0 -910 -33 -29 c-18 -16 -41 -29 -52 -29 -11 0 -20 -4 -20 -10 0 -7
148 -10 425 -10 277 0 425 3 425 10 0 6 -9 10 -19 10 -11 0 -33 11 -48 24
l-28 24 -3 911 c-3 1011 -6 957 63 982 19 7 35 17 35 21 0 4 -191 8 -425 8
-234 0 -425 -4 -425 -9z"/>
<path d="M17080 7041 c0 -5 13 -12 30 -16 16 -4 39 -18 50 -32 20 -25 20 -39
20 -943 l0 -918 -31 -26 c-17 -14 -39 -26 -50 -26 -10 0 -19 -4 -19 -10 0 -7
148 -10 425 -10 234 0 425 4 425 8 0 4 -14 12 -32 17 -17 6 -40 21 -49 35 -18
24 -19 71 -20 879 l-1 855 27 14 c99 52 202 64 270 33 49 -22 68 -43 97 -106
l23 -50 3 -792 c3 -881 6 -839 -63 -864 -19 -7 -35 -17 -35 -21 0 -4 189 -8
420 -8 390 0 478 6 389 25 -19 4 -38 19 -50 38 -18 31 -19 59 -19 762 0 801
-1 808 -60 925 -81 160 -227 239 -442 240 -155 0 -319 -43 -485 -129 l-92 -48
-28 56 c-30 60 -71 94 -132 111 -46 13 -571 13 -571 1z"/>
<path d="M19625 3644 c-825 -1797 -1501 -3270 -1503 -3275 -3 -8 57 -44 63
-37 5 4 3005 6538 3005 6543 0 4 -55 35 -62 35 -2 0 -678 -1470 -1503 -3266z"/>
<path d="M6650 6075 l0 -105 575 0 575 0 0 105 0 105 -575 0 -575 0 0 -105z"/>
<path d="M16810 3840 c0 -5 11 -12 24 -16 13 -3 35 -17 48 -31 l23 -25 0
-1335 0 -1335 -33 -29 c-18 -16 -39 -29 -47 -29 -8 0 -15 -4 -15 -10 0 -7 147
-10 420 -10 231 0 420 4 420 8 0 4 -16 14 -35 21 -70 25 -65 -72 -65 1390 l0
1319 25 30 c14 16 36 33 50 36 14 4 25 11 25 16 0 6 -152 10 -420 10 -268 0
-420 -4 -420 -10z"/>
<path d="M22611 3178 c-111 -19 -193 -139 -167 -242 15 -60 104 -133 204 -167
77 -26 132 -61 175 -108 30 -33 37 -49 37 -82 0 -121 -142 -187 -277 -129 -49
21 -124 88 -135 120 -8 25 -28 0 -28 -35 0 -27 7 -39 35 -60 84 -65 254 -87
340 -45 81 39 126 124 110 207 -9 51 -103 143 -170 167 -187 68 -268 144 -244
229 12 44 51 92 90 112 36 19 122 19 158 1 28 -15 90 -78 108 -111 15 -26 33
-9 33 30 0 26 -7 38 -29 55 -68 48 -164 71 -240 58z"/>
<path d="M21010 3170 c0 -5 9 -19 20 -30 19 -19 20 -33 20 -274 0 -269 5 -306
51 -364 36 -46 95 -79 164 -91 132 -23 255 21 305 109 25 44 25 49 30 328 5
281 5 283 28 300 13 10 20 21 16 25 -9 9 -124 9 -124 1 0 -4 11 -17 25 -30
l25 -23 0 -269 c0 -262 -1 -270 -23 -313 -51 -95 -193 -137 -304 -89 -59 25
-85 50 -110 105 -15 35 -18 79 -21 333 l-4 292 -49 0 c-27 0 -49 -4 -49 -10z"/>
<path d="M21720 3174 c0 -3 9 -17 20 -31 19 -25 20 -41 20 -348 0 -307 -1
-323 -20 -348 -11 -14 -20 -28 -20 -31 0 -3 25 -6 55 -6 59 0 68 9 33 32 -23
15 -23 16 -26 337 -2 176 0 321 5 320 4 0 118 -157 252 -350 134 -192 250
-349 258 -349 11 0 13 65 13 359 0 198 3 366 6 375 3 9 12 16 20 16 8 0 14 7
14 15 0 12 -13 15 -55 15 -59 0 -66 -6 -35 -33 19 -16 20 -29 20 -323 l0 -307
-232 331 -232 332 -48 0 c-26 0 -48 -3 -48 -6z"/>
<path d="M23010 3173 c0 -5 7 -17 15 -27 22 -29 22 -671 0 -702 -8 -12 -11
-24 -8 -28 3 -3 102 -6 219 -6 l212 0 4 30 c3 17 3 32 0 34 -2 3 -23 -5 -45
-17 -35 -18 -63 -22 -174 -25 l-133 -4 0 191 0 191 60 0 c33 0 77 -7 97 -15
19 -8 37 -15 39 -15 2 0 4 18 4 40 0 22 -2 40 -4 40 -2 0 -20 -7 -39 -15 -20
-8 -64 -15 -97 -15 l-60 0 0 166 0 166 123 -4 c116 -4 137 -8 210 -46 4 -2 7
12 7 32 l0 36 -215 0 c-118 0 -215 -3 -215 -7z"/>
<path d="M23570 3174 c0 -3 9 -17 20 -31 19 -25 20 -41 20 -353 0 -314 -1
-328 -20 -345 -11 -10 -20 -22 -20 -27 0 -4 34 -8 75 -8 78 0 90 7 53 32 -22
15 -23 21 -23 174 l0 159 55 2 55 3 95 -112 c194 -228 227 -258 290 -258 33 0
41 15 11 23 -20 5 -300 325 -299 342 0 6 21 18 47 28 55 21 81 42 115 92 64
94 5 226 -121 271 -38 13 -353 21 -353 8z m353 -44 c56 -38 80 -90 75 -160 -5
-71 -37 -118 -101 -149 -34 -17 -62 -21 -135 -21 l-92 0 0 173 c0 96 3 177 8
181 4 4 52 6 108 4 88 -3 105 -6 137 -28z"/>
<path d="M16152 3020 c-115 -16 -275 -80 -381 -153 -35 -24 -45 -27 -52 -16
-5 8 -9 19 -9 26 0 21 -61 83 -104 106 -39 21 -55 22 -323 25 -156 2 -283 -1
-283 -5 0 -5 16 -15 35 -22 68 -24 65 27 65 -966 0 -993 3 -942 -65 -966 -19
-7 -35 -17 -35 -21 0 -4 191 -8 425 -8 277 0 425 3 425 10 0 6 -9 10 -20 10
-11 0 -34 13 -52 29 l-33 29 -5 859 c-4 755 -3 859 10 870 35 29 101 63 144
75 43 11 48 11 68 -9 21 -21 21 -24 8 -107 -7 -46 -10 -106 -6 -132 14 -107
81 -200 181 -252 43 -23 63 -27 135 -27 73 0 93 4 142 28 61 30 101 70 144
143 23 38 29 63 32 129 4 74 1 89 -23 144 -68 151 -228 227 -423 201z"/>
<path d="M11825 2993 c-264 -56 -487 -228 -607 -468 -40 -78 -76 -193 -94
-296 -22 -128 -15 -391 14 -499 72 -265 202 -454 398 -576 151 -94 300 -134
496 -134 193 0 354 41 502 128 71 42 181 149 218 212 139 238 9 515 -247 528
-126 7 -238 -56 -300 -169 -27 -49 -30 -62 -30 -149 0 -114 15 -148 106 -246
71 -77 83 -102 69 -153 -21 -81 -109 -125 -250 -125 -80 -1 -102 3 -142 22
-122 60 -183 197 -208 467 -13 142 -13 816 0 964 18 202 56 322 126 400 60 67
112 86 229 85 129 -1 211 -39 242 -113 21 -50 8 -84 -62 -161 -86 -93 -107
-137 -113 -230 -3 -60 0 -86 18 -132 62 -165 266 -250 428 -179 72 32 156 124
177 193 70 236 -114 492 -430 597 -49 16 -119 35 -155 40 -93 15 -302 12 -385
-6z"/>
<path d="M13756 2999 c-394 -58 -669 -325 -618 -601 55 -294 452 -352 597 -87
22 42 29 70 33 129 6 107 -19 169 -109 265 -76 82 -87 107 -69 159 25 76 125
121 256 114 53 -2 81 -9 101 -24 70 -51 103 -196 103 -453 -1 -187 2 -180 -90
-253 -68 -54 -150 -91 -347 -158 -210 -72 -298 -113 -383 -176 -237 -179 -287
-500 -113 -720 106 -132 315 -203 520 -174 149 20 281 77 377 161 26 23 48 40
50 38 1 -2 8 -23 15 -47 7 -24 28 -61 48 -83 57 -63 92 -69 405 -69 172 0 268
4 268 10 0 6 -9 10 -21 10 -11 0 -34 13 -50 29 l-29 29 0 669 c-1 367 -5 699
-9 737 -32 242 -292 449 -625 495 -89 13 -224 12 -310 0z m279 -1767 c-46 -55
-152 -84 -220 -62 -135 44 -201 232 -176 495 13 132 30 196 78 288 35 67 46
78 271 284 l57 52 5 -517 c5 -506 5 -517 -15 -540z"/>
<path d="M20171 1818 c-4 -13 -59 -176 -122 -362 -90 -267 -120 -345 -141
-367 -16 -15 -28 -30 -28 -33 0 -3 27 -6 60 -6 57 0 79 13 45 26 -23 9 -18 60
13 154 l29 85 147 0 148 0 34 -95 c37 -105 41 -135 19 -144 -8 -3 -15 -10 -15
-16 0 -6 32 -10 80 -10 80 0 98 9 60 30 -29 16 -45 52 -180 423 -67 185 -127
337 -132 337 -5 0 -12 -10 -17 -22z m73 -278 c36 -104 66 -192 66 -195 0 -3
-61 -5 -136 -5 l-135 0 6 23 c26 91 121 367 126 367 3 0 36 -85 73 -190z"/>
<path d="M25101 1818 c-4 -13 -59 -176 -122 -362 -90 -267 -120 -345 -141
-367 -16 -15 -28 -30 -28 -33 0 -3 27 -6 60 -6 57 0 79 13 45 26 -23 9 -18 60
13 154 l29 85 147 0 148 0 34 -95 c37 -105 41 -135 19 -144 -8 -3 -15 -10 -15
-16 0 -6 32 -10 80 -10 80 0 98 9 60 30 -29 16 -45 52 -180 423 -67 185 -127
337 -132 337 -5 0 -12 -10 -17 -22z m73 -278 c36 -104 66 -192 66 -195 0 -3
-61 -5 -136 -5 l-135 0 6 23 c26 91 121 367 126 367 3 0 36 -85 73 -190z"/>
<path d="M21281 1818 c-111 -19 -193 -139 -167 -242 15 -60 104 -133 204 -167
77 -26 132 -61 175 -108 30 -33 37 -49 37 -82 0 -121 -142 -187 -277 -129 -49
21 -124 88 -135 120 -8 25 -28 0 -28 -35 0 -27 7 -39 35 -60 84 -65 254 -87
340 -45 81 39 126 124 110 207 -9 51 -103 143 -170 167 -187 68 -268 144 -244
229 12 44 51 92 90 112 36 19 122 19 158 1 28 -15 90 -78 108 -111 15 -26 33
-9 33 30 0 26 -7 38 -29 55 -68 48 -164 71 -240 58z"/>
<path d="M25545 1816 c-18 -13 -18 -24 -2 -292 10 -154 17 -287 17 -296 0 -10
4 -18 8 -18 7 0 32 447 32 562 0 45 -26 65 -55 44z"/>
<path d="M19680 1811 c0 -5 10 -15 23 -24 22 -14 22 -15 22 -303 0 -311 -6
-356 -50 -400 -42 -42 -75 -32 -133 41 -18 22 -37 14 -37 -15 0 -34 56 -70
110 -70 83 0 144 69 164 185 6 34 11 168 11 297 0 220 1 237 20 261 11 14 20
28 20 31 0 3 -34 6 -75 6 -41 0 -75 -4 -75 -9z"/>
<path d="M20870 1814 c0 -3 9 -17 20 -31 19 -25 20 -41 20 -348 0 -307 -1
-323 -20 -348 -11 -14 -20 -28 -20 -31 0 -8 135 -8 143 0 3 4 -4 15 -16 24
-22 18 -22 20 -22 355 l0 336 23 17 c13 10 20 21 16 25 -9 8 -144 10 -144 1z"/>
<path d="M21670 1787 c0 -47 9 -51 42 -20 28 27 34 28 144 31 l115 4 -3 -363
c-2 -279 -6 -363 -15 -367 -32 -10 -7 -22 47 -22 64 0 69 3 45 26 -13 13 -15
68 -15 371 l0 355 116 -4 c112 -3 117 -4 139 -31 13 -15 27 -27 30 -27 3 0 5
18 5 40 l0 40 -325 0 -325 0 0 -33z"/>
<path d="M22680 1813 c0 -5 7 -17 15 -27 22 -29 22 -671 0 -702 -8 -12 -11
-24 -8 -28 3 -3 102 -6 219 -6 l212 0 4 30 c3 17 3 32 0 34 -2 3 -23 -5 -45
-17 -35 -18 -63 -22 -174 -25 l-133 -4 0 191 0 191 60 0 c33 0 77 -7 97 -15
19 -8 37 -15 39 -15 2 0 4 18 4 40 0 22 -2 40 -4 40 -2 0 -20 -7 -39 -15 -20
-8 -64 -15 -97 -15 l-60 0 0 166 0 166 123 -4 c116 -4 137 -8 210 -46 4 -2 7
12 7 32 l0 36 -215 0 c-118 0 -215 -3 -215 -7z"/>
<path d="M23230 1814 c0 -3 9 -17 20 -31 19 -25 20 -41 20 -348 0 -307 -1
-323 -20 -348 -11 -14 -20 -28 -20 -31 0 -8 135 -8 143 0 3 4 -4 15 -16 24
-22 18 -22 20 -22 355 l0 336 23 17 c13 10 20 21 16 25 -9 8 -144 10 -144 1z"/>
<path d="M23470 1814 c0 -3 9 -17 20 -31 19 -25 20 -41 20 -348 0 -307 -1
-323 -20 -348 -11 -14 -20 -28 -20 -31 0 -3 25 -6 55 -6 59 0 68 9 33 32 -23
15 -23 16 -26 337 -2 176 0 321 5 320 4 0 118 -157 252 -350 134 -192 250
-349 258 -349 11 0 13 65 13 359 0 198 3 366 6 375 3 9 12 16 20 16 8 0 14 7
14 15 0 12 -13 15 -55 15 -59 0 -66 -6 -35 -33 19 -16 20 -29 20 -323 l0 -307
-232 331 -232 332 -48 0 c-26 0 -48 -3 -48 -6z"/>
<path d="M24610 1811 c0 -5 10 -15 23 -24 22 -14 22 -15 22 -303 0 -311 -6
-356 -50 -400 -42 -42 -75 -32 -133 41 -18 22 -37 14 -37 -15 0 -34 56 -70
110 -70 83 0 144 69 164 185 6 34 11 168 11 297 0 220 1 237 20 261 11 14 20
28 20 31 0 3 -34 6 -75 6 -41 0 -75 -4 -75 -9z"/>
<path d="M25542 1118 c-34 -34 6 -90 48 -68 35 19 20 80 -20 80 -9 0 -21 -5
-28 -12z"/>
</g>
</svg>
