<svg width="59" height="21" viewBox="0 0 59 21" fill="none" xmlns="http://www.w3.org/2000/svg">
<path d="M17.1 20.28C17.24 20.66 17.5 20.85 17.88 20.85V21H12.09V20.85C12.23 20.85 12.34 20.8 12.42 20.7C12.52 20.6 12.57 20.49 12.57 20.37C12.57 20.33 12.56 20.3 12.54 20.28C12.54 20.26 12.54 20.23 12.54 20.19L11.1 15.99H4.98L4.26 18.06C4.2 18.28 4.17 18.5 4.17 18.72C4.17 19.3 4.37 19.8 4.77 20.22C5.19 20.64 5.69 20.85 6.27 20.85V21H0.9V20.85C1.28 20.85 1.63 20.78 1.95 20.64C2.29 20.48 2.59 20.28 2.85 20.04C3.13 19.78 3.37 19.49 3.57 19.17C3.77 18.85 3.93 18.52 4.05 18.18L4.83 15.87V15.81H4.86L10.23 -1.43051e-06L17.1 20.28ZM11.04 15.81L8.04 6.93L5.01 15.81H11.04ZM39.7493 18.93C40.0693 18.93 40.3993 18.83 40.7393 18.63L40.8893 18.72C40.5493 19.38 39.9693 19.93 39.1493 20.37C38.3293 20.79 37.3893 21 36.3293 21C35.5493 21 34.8193 20.88 34.1393 20.64C33.4793 20.38 32.9293 20.05 32.4893 19.65C32.1893 19.37 31.8893 19.09 31.5893 18.81C31.2893 18.51 30.9793 18.19 30.6593 17.85C29.8593 18.75 28.9893 19.5 28.0493 20.1C27.1093 20.7 26.0893 21 24.9893 21C24.2493 21 23.5593 20.86 22.9193 20.58C22.2793 20.3 21.7193 19.92 21.2393 19.44C20.7593 18.96 20.3793 18.4 20.0993 17.76C19.8193 17.12 19.6793 16.43 19.6793 15.69C19.6793 14.95 19.8193 14.26 20.0993 13.62C20.3793 12.98 20.7593 12.42 21.2393 11.94C21.7193 11.46 22.2793 11.08 22.9193 10.8C23.5593 10.52 24.2493 10.38 24.9893 10.38H25.0493C24.5693 9.52 24.1793 8.7 23.8793 7.92C23.5993 7.14 23.4393 6.44 23.3993 5.82C23.3393 4.78 23.5093 3.9 23.9093 3.18C24.3093 2.44 24.8393 1.84 25.4993 1.38C26.1593 0.899999 26.8993 0.549999 27.7193 0.33C28.5593 0.109999 29.3893 -1.43051e-06 30.2093 -1.43051e-06C31.2893 -1.43051e-06 32.2093 0.149998 32.9693 0.449998C33.7493 0.729999 34.3593 1.02 34.7993 1.32C35.3793 1.72 35.8493 2.19 36.2093 2.73C36.5893 3.27 36.7793 3.85 36.7793 4.47C36.7793 5.11 36.5493 5.67 36.0893 6.15C35.6293 6.61 35.0693 6.84 34.4093 6.84C33.7693 6.84 33.2093 6.61 32.7293 6.15C32.2693 5.67 32.0393 5.11 32.0393 4.47C32.0393 4.09 32.1093 3.75 32.2493 3.45C32.4093 3.13 32.6193 2.86 32.8793 2.64C33.0393 2.5 33.1893 2.33 33.3293 2.13C33.4893 1.93 33.5493 1.69 33.5093 1.41C33.4693 1.21 33.3493 1.04 33.1493 0.899999C32.9493 0.739999 32.6893 0.609999 32.3693 0.509999C32.0693 0.409999 31.7293 0.329999 31.3493 0.269999C30.9693 0.209999 30.5893 0.18 30.2093 0.18C29.8893 0.18 29.5693 0.259999 29.2493 0.419999C28.9493 0.579999 28.6893 0.829999 28.4693 1.17C28.2493 1.49 28.0893 1.91 27.9893 2.43C27.9093 2.93 27.9493 3.54 28.1093 4.26C28.2093 4.76 28.4193 5.36 28.7393 6.06C29.0593 6.74 29.4593 7.49 29.9393 8.31C30.4393 9.11 31.0093 9.96 31.6493 10.86C32.2893 11.76 32.9893 12.66 33.7493 13.56C33.9493 13.3 34.1293 13.06 34.2893 12.84C34.4893 12.58 34.5893 12.29 34.5893 11.97C34.5893 11.57 34.4493 11.24 34.1693 10.98C33.8893 10.7 33.5493 10.56 33.1493 10.56V10.38H37.9193V10.56C37.1393 10.56 36.4293 10.86 35.7893 11.46C35.1493 12.04 34.5093 12.78 33.8693 13.68C34.5693 14.52 35.3093 15.35 36.0893 16.17C36.8693 16.97 37.6793 17.73 38.5193 18.45C38.8793 18.77 39.2893 18.93 39.7493 18.93ZM28.4093 18.36C29.2093 18.36 29.9193 18.14 30.5393 17.7C29.5793 16.68 28.6393 15.57 27.7193 14.37C26.7993 13.17 25.9893 11.98 25.2893 10.8C24.6293 11.64 24.2993 12.66 24.2993 13.86C24.2993 14.48 24.3893 15.07 24.5693 15.63C24.7693 16.17 25.0393 16.64 25.3793 17.04C25.7393 17.44 26.1693 17.76 26.6693 18C27.1893 18.24 27.7693 18.36 28.4093 18.36ZM42.6773 10.5C42.6773 9.04 42.8773 7.68 43.2773 6.42C43.6973 5.14 44.2873 4.03 45.0473 3.09C45.8273 2.13 46.7673 1.38 47.8673 0.839998C48.9673 0.279999 50.2073 -1.43051e-06 51.5873 -1.43051e-06C52.6873 -1.43051e-06 53.6173 0.149998 54.3773 0.449998C55.1573 0.729999 55.7673 1.02 56.2073 1.32C56.7873 1.72 57.2573 2.19 57.6173 2.73C57.9973 3.27 58.1873 3.85 58.1873 4.47C58.1873 5.13 57.9573 5.69 57.4973 6.15C57.0373 6.61 56.4773 6.84 55.8173 6.84C55.1573 6.84 54.5973 6.61 54.1373 6.15C53.6773 5.69 53.4473 5.13 53.4473 4.47C53.4473 4.11 53.5173 3.77 53.6573 3.45C53.8173 3.13 54.0273 2.86 54.2873 2.64C54.4473 2.5 54.5973 2.33 54.7373 2.13C54.8973 1.93 54.9573 1.69 54.9173 1.41C54.8573 1.15 54.7073 0.94 54.4673 0.779999C54.2473 0.619999 53.9573 0.489999 53.5973 0.389999C53.4373 0.349999 53.2273 0.309999 52.9673 0.269999C52.7073 0.229999 52.4373 0.209999 52.1573 0.209999C51.5773 0.209999 51.0473 0.309999 50.5673 0.509999C50.1073 0.689999 49.7073 1.04 49.3673 1.56C49.0473 2.08 48.7873 2.79 48.5873 3.69C48.4073 4.59 48.3173 5.74 48.3173 7.14V10.5V13.86C48.3173 15.28 48.4073 16.44 48.5873 17.34C48.7873 18.22 49.0473 18.92 49.3673 19.44C49.7073 19.96 50.1073 20.32 50.5673 20.52C51.0473 20.7 51.5773 20.79 52.1573 20.79C52.4373 20.79 52.7073 20.77 52.9673 20.73C53.2273 20.69 53.4373 20.65 53.5973 20.61C53.9573 20.51 54.2473 20.38 54.4673 20.22C54.7073 20.06 54.8573 19.85 54.9173 19.59C54.9573 19.31 54.8973 19.07 54.7373 18.87C54.5973 18.67 54.4473 18.5 54.2873 18.36C54.0273 18.14 53.8173 17.88 53.6573 17.58C53.5173 17.26 53.4473 16.91 53.4473 16.53C53.4473 15.89 53.6773 15.34 54.1373 14.88C54.5973 14.4 55.1573 14.16 55.8173 14.16C56.4773 14.16 57.0373 14.4 57.4973 14.88C57.9573 15.34 58.1873 15.89 58.1873 16.53C58.1873 17.15 57.9973 17.73 57.6173 18.27C57.2573 18.81 56.7873 19.28 56.2073 19.68C55.7673 19.98 55.1573 20.28 54.3773 20.58C53.6173 20.86 52.6873 21 51.5873 21C50.2073 21 48.9673 20.73 47.8673 20.19C46.7673 19.63 45.8273 18.88 45.0473 17.94C44.2873 16.98 43.6973 15.87 43.2773 14.61C42.8773 13.33 42.6773 11.96 42.6773 10.5Z" fill="black"/>
</svg>
